<svg width="86" height="87" viewBox="0 0 86 87" fill="none" xmlns="http://www.w3.org/2000/svg">
<g clip-path="url(#clip0_373_864)">
<path d="M56.9248 0.707226L43.7153 13.7338C42.7569 14.6806 42.7454 16.2319 43.7153 17.1787L66.0929 39.3308C68.4253 41.635 68.4253 45.3764 66.0929 47.6806L43.7153 69.8213C42.7569 70.7681 42.7569 72.3194 43.7153 73.2662L56.9132 86.2928C57.8716 87.2395 59.4419 87.2395 60.4003 86.2928L85.2604 61.6882C86.2188 60.7415 86.2188 59.1901 85.2604 58.2434L74.5566 47.6806C72.2126 45.3764 72.2126 41.6236 74.5566 39.3194L85.2604 28.7681C86.2188 27.8213 86.2303 26.27 85.2604 25.3232L60.4119 0.718632C59.4535 -0.228136 57.8831 -0.239542 56.9248 0.718632V0.707226Z" fill="#164072"/>
<path d="M13.9249 0.70747L0.727026 13.7341C-0.231352 14.6809 -0.242898 16.2322 0.727026 17.179L23.1046 39.331C25.437 41.6352 25.437 45.3767 23.1046 47.6809L0.727026 69.8215C-0.231352 70.7683 -0.231352 72.3196 0.727026 73.2664L13.9249 86.293C14.8833 87.2398 16.4537 87.2398 17.412 86.293L42.2721 61.6885C43.2305 60.7417 43.2305 59.1904 42.2721 58.2436L31.5683 47.6809C29.2243 45.3767 29.2243 41.6238 31.5683 39.3196L42.2721 28.7683C43.2305 27.8215 43.2421 26.2702 42.2721 25.3234L17.412 0.718877C16.4537 -0.227891 14.8833 -0.239298 13.9249 0.718877V0.70747Z" fill="#164072"/>
</g>
<defs>
<clipPath id="clip0_373_864">
<rect width="86" height="87" fill="white"/>
</clipPath>
</defs>
</svg>
