<svg width="89" height="87" viewBox="0 0 89 87" fill="none" xmlns="http://www.w3.org/2000/svg">
<g clip-path="url(#clip0_373_867)">
<path d="M51.7971 0.00971821H36.0217C34.8698 0.000175592 33.9327 0.906724 33.9327 2.03275L33.9131 28.2177C33.9131 30.9469 31.6483 33.1512 28.8564 33.1608L2.0793 33.1798C0.927389 33.1798 0 34.0864 0 35.2124V50.6333C0.00976198 51.7593 0.946913 52.6754 2.09883 52.6659L31.8534 52.6468C33.0053 52.6468 33.9424 51.7307 33.9327 50.6047V38.1038C33.9229 35.3746 36.1877 33.1512 38.9796 33.1608H51.7678C52.9197 33.1703 53.8569 32.2638 53.8569 31.1377L53.8861 2.05184C53.8861 0.925809 52.9588 0.00971821 51.8068 0.00971821H51.7971Z" fill="#F65A14"/>
<path d="M88.98 36.3573V51.7782C88.9897 52.9042 88.0623 53.8203 86.9104 53.8203L60.1236 53.8394C57.3316 53.8394 55.0766 56.0533 55.0668 58.7824L55.0473 84.9578C55.0473 86.0839 54.1102 87 52.9583 86.9904H37.1829C36.031 86.9809 35.0938 86.0648 35.1036 84.9387L35.1231 55.8529C35.1231 54.7268 36.0603 53.8107 37.2122 53.8203H50.0004C52.7923 53.8298 55.0668 51.6159 55.0571 48.8868V36.3859C55.0473 35.2599 55.9747 34.3438 57.1266 34.3438L86.8811 34.3152C88.0331 34.3152 88.9702 35.2217 88.9702 36.3478L88.98 36.3573Z" fill="#F65A14"/>
</g>
<defs>
<clipPath id="clip0_373_867">
<rect width="89" height="87" fill="white"/>
</clipPath>
</defs>
</svg>
