<svg width="82" height="83" viewBox="0 0 82 83" fill="none" xmlns="http://www.w3.org/2000/svg">
<g clip-path="url(#clip0_373_858)">
<path d="M54.9435 0.679462L42.6591 13.109C41.7569 14.011 41.7569 15.4871 42.6591 16.4008L63.4917 37.5345C65.6663 39.7369 65.6663 43.2982 63.4917 45.5006L42.6591 66.6226C41.7684 67.5363 41.7684 69.0007 42.6591 69.9145L54.9435 82.344C55.8457 83.246 57.2916 83.246 58.1939 82.344L81.3283 58.879C82.219 57.9653 82.219 56.5009 81.3283 55.5872L71.3689 45.5123C69.1943 43.31 69.1943 39.7369 71.3689 37.5345L81.3283 27.4597C82.2306 26.5577 82.2306 25.0816 81.3283 24.1678L58.1823 0.679462C57.2916 -0.2343 55.8342 -0.2343 54.9319 0.679462H54.9435Z" fill="#527F40"/>
<path d="M27.0556 0.679462L39.34 13.109C40.2423 14.011 40.2423 15.4871 39.34 16.4008L18.5075 37.5345C16.3328 39.7369 16.3328 43.2982 18.5075 45.5006L39.34 66.6226C40.2307 67.5363 40.2307 69.0007 39.34 69.9145L27.0556 82.344C26.1534 83.246 24.7075 83.246 23.8053 82.344L0.670823 58.8556C-0.219853 57.9419 -0.219853 56.4775 0.670823 55.5637L10.6302 45.4889C12.8048 43.2865 12.8048 39.7135 10.6302 37.5111L0.670823 27.4363C-0.23142 26.5342 -0.23142 25.0581 0.670823 24.1444L23.8053 0.679462C24.6959 -0.2343 26.1534 -0.2343 27.0556 0.679462Z" fill="#527F40"/>
</g>
<defs>
<clipPath id="clip0_373_858">
<rect width="82" height="83" fill="white"/>
</clipPath>
</defs>
</svg>
