<svg width="84" height="81" viewBox="0 0 84 81" fill="none" xmlns="http://www.w3.org/2000/svg">
<g clip-path="url(#clip0_373_870)">
<path d="M12.9892 0.658502L0.678422 12.7867C-0.215539 13.6682 -0.22631 15.1125 0.678422 15.994L21.5519 36.6184C23.7275 38.7637 23.7275 42.2471 21.5519 44.3923L0.678422 65.0061C-0.215539 65.8876 -0.215539 67.3319 0.678422 68.2134L12.9892 80.3416C13.8832 81.2231 15.348 81.2231 16.242 80.3416L39.4311 57.4339C40.325 56.5524 40.325 55.1081 39.4311 54.2266L29.4467 44.3923C27.2603 42.2471 27.2603 38.753 29.4467 36.6078L39.4311 26.7841C40.325 25.9026 40.3358 24.4583 39.4311 23.5768L16.242 0.669122C15.348 -0.212352 13.8832 -0.222972 12.9892 0.669122V0.658502Z" fill="#0F1F2E"/>
<path d="M71.0099 0.65838L83.3315 12.7866C84.2254 13.6681 84.2362 15.1124 83.3315 15.9939L62.458 36.6183C60.2824 38.7635 60.2824 42.2469 62.458 44.3922L83.3315 65.006C84.2254 65.8874 84.2254 67.3318 83.3315 68.2133L71.0207 80.3415C70.1267 81.223 68.6619 81.223 67.7679 80.3415L44.5788 57.4338C43.6849 56.5523 43.6849 55.108 44.5788 54.2265L54.5632 44.3922C56.7496 42.2469 56.7496 38.7529 54.5632 36.6076L44.5788 26.784C43.6849 25.9025 43.6741 24.4582 44.5788 23.5767L67.7572 0.669C68.6511 -0.212474 70.1159 -0.223094 71.0099 0.669V0.65838Z" fill="#0F1F2E"/>
</g>
<defs>
<clipPath id="clip0_373_870">
<rect width="84" height="81" fill="white"/>
</clipPath>
</defs>
</svg>
