<svg width="127" height="256" viewBox="0 0 127 256" fill="none" xmlns="http://www.w3.org/2000/svg">
<path d="M85.189 2.06846L123.914 40.3997C126.724 43.1855 126.757 47.7504 123.914 50.5363L58.3117 115.719C51.4739 122.5 51.4739 133.509 58.3117 140.289L123.914 205.439C126.724 208.224 126.724 212.789 123.914 215.575L85.2229 253.906C82.4133 256.692 77.8096 256.692 75 253.906L2.11991 181.507C-0.689685 178.721 -0.689685 174.156 2.11991 171.37L33.4993 140.289C40.371 133.509 40.371 122.466 33.4993 115.686L2.11991 84.6383C-0.689685 81.8524 -0.723535 77.2876 2.11991 74.5017L74.9662 2.10202C77.7758 -0.683867 82.3794 -0.717432 85.189 2.10202V2.06846Z" fill="#F3F3F3"/>
</svg>
