<svg width="127" height="256" viewBox="0 0 127 256" fill="none" xmlns="http://www.w3.org/2000/svg">
<path d="M40.811 2.06846L2.11991 40.3997C-0.689685 43.1855 -0.723535 47.7504 2.11991 50.5363L67.7222 115.719C74.56 122.5 74.56 133.509 67.7222 140.289L2.11991 205.439C-0.689685 208.224 -0.689685 212.789 2.11991 215.575L40.811 253.906C43.6206 256.692 48.2243 256.692 51.0339 253.906L123.914 181.507C126.724 178.721 126.724 174.156 123.914 171.37L92.5346 140.289C85.6629 133.509 85.6629 122.466 92.5346 115.686L123.914 84.6383C126.724 81.8524 126.757 77.2876 123.914 74.5017L51.0339 2.10202C48.2243 -0.683867 43.6206 -0.717432 40.811 2.10202V2.06846Z" fill="#F3F3F3"/>
</svg>
