<svg width="100" height="102" viewBox="0 0 100 102" fill="none" xmlns="http://www.w3.org/2000/svg">
<path d="M49.9999 1.93364V16.5678C50.0109 17.6335 49.1428 18.5014 48.0768 18.5014L23.2197 18.5234C20.6263 18.5234 18.5274 20.6218 18.5274 23.2147L18.5055 48.0664C18.5055 49.1321 17.6373 50 16.5714 50H1.93406C0.86813 49.989 0 49.1211 0 48.0554L0.021978 20.4461C0.021978 19.3804 0.890108 18.5124 1.95604 18.5124H13.8241C16.4175 18.5234 18.5274 16.425 18.5164 13.8211V1.95561C18.5055 0.889914 19.3736 0.0219732 20.4395 0.0219732L48.0658 0C49.1318 0 49.9999 0.867941 49.9999 1.93364Z" fill="#F4BD37"/>
<path d="M98.0664 52.0001H83.4322C82.3665 51.9891 81.4986 52.8572 81.4986 53.9232L81.4766 78.7803C81.4766 81.3737 79.3782 83.4726 76.7853 83.4726L51.9336 83.4945C50.8679 83.4945 50 84.3627 50 85.4286V100.066C50.011 101.132 50.8789 102 51.9446 102L79.5539 101.978C80.6196 101.978 81.4876 101.11 81.4876 100.044V88.1759C81.4766 85.5824 83.575 83.4726 86.1789 83.4836H98.0444C99.1101 83.4945 99.978 82.6264 99.978 81.5605L100 53.9452C100 52.8792 99.1321 52.0111 98.0664 52.0111V52.0001Z" fill="#F4BD37"/>
</svg>
