<svg width="95" height="84" viewBox="0 0 95 84" fill="none" xmlns="http://www.w3.org/2000/svg">
<path d="M92.4487 27.2246H75.6003C74.3733 27.2123 73.374 28.1842 73.374 29.3775L73.3487 57.2053C73.3487 60.1086 70.9328 62.4583 67.9476 62.4583L39.3356 62.4829C38.1086 62.4829 37.1094 63.4548 37.1094 64.6482V81.0348C37.122 82.2281 38.1213 83.2 39.3482 83.2L71.1352 83.1754C72.3621 83.1754 73.3614 82.2035 73.3614 81.0102V67.7237C73.3487 64.8204 75.7647 62.4583 78.7625 62.4707H92.4234C93.6504 62.483 94.6496 61.5111 94.6496 60.3178L94.6749 29.4021C94.6749 28.2088 93.6757 27.2369 92.4487 27.2369V27.2246Z" fill="#F4BD37"/>
<path d="M57.5529 2.1652V18.5518C57.5656 19.7452 56.5663 20.717 55.3393 20.717L26.7273 20.7417C23.7422 20.7417 21.3262 23.0914 21.3262 25.9947L21.3009 53.8225C21.3009 55.0158 20.3016 55.9877 19.0747 55.9877H2.22622C0.99927 55.9754 0 55.0035 0 53.8102L0.025298 22.8946C0.025298 21.7012 1.02457 20.7293 2.25152 20.7293H15.9124C18.8976 20.7417 21.3262 18.3919 21.3135 15.4763V2.18981C21.3009 0.996485 22.3002 0.0246046 23.5271 0.0246046L55.3267 0C56.5536 0 57.5529 0.97188 57.5529 2.1652Z" fill="#F4BD37"/>
</svg>
