<svg width="46" height="46" viewBox="0 0 46 46" fill="none" xmlns="http://www.w3.org/2000/svg">
<path d="M1.75977 45.4999L15.0798 45.4999C16.0498 45.5099 16.8398 44.7199 16.8398 43.7499L16.8598 21.1299C16.8598 18.7699 18.7698 16.8599 21.1298 16.8599L43.7498 16.8399C44.7198 16.8399 45.5098 16.0499 45.5098 15.0799L45.5098 1.75991C45.4998 0.789906 44.7098 -9.54374e-05 43.7398 -9.55222e-05L18.6098 0.0199066C17.6398 0.0199065 16.8498 0.8099 16.8498 1.7799L16.8498 12.5799C16.8598 14.9399 14.9498 16.8599 12.5798 16.8499L1.77976 16.8499C0.809764 16.8399 0.0197702 17.6299 0.0197701 18.5999L-0.000236356 43.7299C-0.000236441 44.6999 0.789764 45.4899 1.75977 45.4899L1.75977 45.4999Z" fill="#F2BB37"/>
</svg>
