<svg width="46" height="46" viewBox="0 0 46 46" fill="none" xmlns="http://www.w3.org/2000/svg">
<path d="M43.75 9.39019e-05L30.43 9.39019e-05C29.46 -0.0099061 28.67 0.780094 28.67 1.75009L28.65 24.3701C28.65 26.7301 26.74 28.6401 24.38 28.6401L1.76 28.6601C0.790002 28.6601 0 29.4501 0 30.4201L0 43.7401C0.01 44.7101 0.799997 45.5001 1.77 45.5001L26.9 45.4801C27.87 45.4801 28.66 44.6901 28.66 43.7201L28.66 32.9201C28.65 30.5601 30.56 28.6401 32.93 28.6501L43.73 28.6501C44.7 28.6601 45.49 27.8701 45.49 26.9001L45.51 1.77009C45.51 0.800094 44.72 0.0100922 43.75 0.0100922V9.39019e-05Z" fill="#F2BB37"/>
</svg>
