<svg width="197" height="27" viewBox="0 0 197 27" fill="none" xmlns="http://www.w3.org/2000/svg">
<g clip-path="url(#clip0_373_597)">
<rect width="197" height="27" fill="white"/>
<path d="M12.1351 0C5.43971 0 0 5.60023 0 12.4639C0 23.1747 12.1351 26.9781 12.1351 26.9781C12.1351 26.9781 24.2701 23.1703 24.2701 12.4639C24.2744 5.60023 18.8304 0 12.1351 0ZM12.1351 18.6805C8.8491 18.6805 6.17181 15.9744 6.09945 12.6082C6.02709 9.29874 8.59797 6.44398 11.8201 6.27348C15.2933 6.08986 18.1749 8.94025 18.1749 12.4683C18.1749 15.9963 15.4678 18.6805 12.1393 18.6805H12.1351Z" fill="#0C0C0C"/>
<path d="M12.1351 0C5.43971 0 0 5.60023 0 12.4639C0 23.1747 12.1351 26.9781 12.1351 26.9781C12.1351 26.9781 24.2701 23.1703 24.2701 12.4639C24.2744 5.60023 18.8304 0 12.1351 0ZM12.1351 18.6805C8.8491 18.6805 6.17181 15.9744 6.09945 12.6082C6.02709 9.29874 8.59797 6.44398 11.8201 6.27348C15.2933 6.08986 18.1749 8.94025 18.1749 12.4683C18.1749 15.9963 15.4678 18.6805 12.1393 18.6805H12.1351Z" fill="#0C0C0C"/>
<path d="M98.68 0.760712C96.6284 0.0175127 94.33 -0.222934 91.9549 0.222986C86.6982 1.19352 82.4546 5.52593 81.4969 10.9251C79.9858 19.4281 86.3449 26.8601 94.347 26.8601C95.8453 26.8601 97.2754 26.6022 98.6034 26.13C101.034 25.2644 103.703 25.4699 105.882 26.8601V0.00876921L105.686 0.131179C103.583 1.46894 101.021 1.61758 98.6843 0.765084L98.68 0.760712ZM100.625 15.24C100.046 17.4783 98.2885 19.2882 96.1177 19.8697C91.176 21.2206 86.7621 16.7002 88.0773 11.6114C88.6562 9.3862 90.4141 7.57629 92.5849 6.99484C97.5266 5.64397 101.94 10.1644 100.625 15.24Z" fill="#0C0C0C"/>
<path d="M98.68 0.760712C96.6284 0.0175127 94.33 -0.222934 91.9549 0.222986C86.6982 1.19352 82.4546 5.52593 81.4969 10.9251C79.9858 19.4281 86.3449 26.8601 94.347 26.8601C95.8453 26.8601 97.2754 26.6022 98.6034 26.13C101.034 25.2644 103.703 25.4699 105.882 26.8601V0.00876921L105.686 0.131179C103.583 1.46894 101.021 1.61758 98.6843 0.765084L98.68 0.760712ZM100.625 15.24C100.046 17.4783 98.2885 19.2882 96.1177 19.8697C91.176 21.2206 86.7621 16.7002 88.0773 11.6114C88.6562 9.3862 90.4141 7.57629 92.5849 6.99484C97.5266 5.64397 101.94 10.1644 100.625 15.24Z" fill="#0C0C0C"/>
<path d="M68.5374 19.2226C67.0476 20.1626 65.2812 20.4598 63.5659 20.0402C61.8505 19.6248 60.4118 18.5494 59.4839 17.0061C57.5856 13.8366 58.5561 9.67033 61.642 7.71178C63.7106 6.409 66.2048 6.42211 68.2096 7.5238L63.2637 10.6015L66.6518 16.3373L73.3258 12.1885C74.5049 11.4584 75.3476 10.2736 75.6754 8.9009C76.1095 7.07351 75.569 5.14556 74.258 3.83403C70.0526 -0.380347 63.4382 -1.29842 58.2155 2.00663C52.0565 5.88876 50.1326 14.2039 53.9123 20.5342C56.398 24.6698 60.7013 26.9432 65.1067 26.9432C67.4477 26.9432 69.8271 26.3005 71.9595 24.954C74.9305 23.0742 77.0076 20.1451 77.8334 16.6652H70.8869C70.3506 17.7144 69.5419 18.5975 68.5331 19.2314L68.5374 19.2226Z" fill="#0C0C0C"/>
<path d="M68.5374 19.2226C67.0476 20.1626 65.2812 20.4598 63.5659 20.0402C61.8505 19.6248 60.4118 18.5494 59.4839 17.0061C57.5856 13.8366 58.5561 9.67033 61.642 7.71178C63.7106 6.409 66.2048 6.42211 68.2096 7.5238L63.2637 10.6015L66.6518 16.3373L73.3258 12.1885C74.5049 11.4584 75.3476 10.2736 75.6754 8.9009C76.1095 7.07351 75.569 5.14556 74.258 3.83403C70.0526 -0.380347 63.4382 -1.29842 58.2155 2.00663C52.0565 5.88876 50.1326 14.2039 53.9123 20.5342C56.398 24.6698 60.7013 26.9432 65.1067 26.9432C67.4477 26.9432 69.8271 26.3005 71.9595 24.954C74.9305 23.0742 77.0076 20.1451 77.8334 16.6652H70.8869C70.3506 17.7144 69.5419 18.5975 68.5331 19.2314L68.5374 19.2226Z" fill="#0C0C0C"/>
<path d="M196.805 0.126807C194.702 1.46457 192.14 1.61321 189.803 0.760712C187.752 0.0175127 185.453 -0.222934 183.078 0.222986C177.821 1.19352 173.578 5.52593 172.62 10.9251C171.109 19.4281 177.468 26.8601 185.47 26.8601C186.968 26.8601 188.398 26.6022 189.726 26.13C192.157 25.2644 194.826 25.4699 197.005 26.8601V0.00876921L196.809 0.131179L196.805 0.126807ZM191.748 15.24C191.169 17.4783 189.412 19.2882 187.241 19.8697C182.299 21.2206 177.885 16.7002 179.2 11.6114C179.779 9.3862 181.537 7.57629 183.708 6.99484C188.65 5.64397 193.064 10.1644 191.748 15.24Z" fill="#0C0C0C"/>
<path d="M196.805 0.126807C194.702 1.46457 192.14 1.61321 189.803 0.760712C187.752 0.0175127 185.453 -0.222934 183.078 0.222986C177.821 1.19352 173.578 5.52593 172.62 10.9251C171.109 19.4281 177.468 26.8601 185.47 26.8601C186.968 26.8601 188.398 26.6022 189.726 26.13C192.157 25.2644 194.826 25.4699 197.005 26.8601V0.00876921L196.809 0.131179L196.805 0.126807ZM191.748 15.24C191.169 17.4783 189.412 19.2882 187.241 19.8697C182.299 21.2206 177.885 16.7002 179.2 11.6114C179.779 9.3862 181.537 7.57629 183.708 6.99484C188.65 5.64397 193.064 10.1644 191.748 15.24Z" fill="#0C0C0C"/>
<path d="M159.662 19.2226C158.173 20.1626 156.406 20.4598 154.691 20.0402C152.976 19.6248 151.537 18.5494 150.609 17.0061C148.711 13.8366 149.681 9.67033 152.767 7.71178C154.836 6.409 157.33 6.42211 159.335 7.5238L154.389 10.6015L157.777 16.3373L164.451 12.1885C165.63 11.4584 166.473 10.2736 166.8 8.9009C167.235 7.07351 166.694 5.14556 165.383 3.83403C161.178 -0.380347 154.563 -1.29842 149.341 2.00663C143.181 5.88876 141.258 14.2039 145.037 20.5342C147.523 24.6698 151.826 26.9432 156.232 26.9432C158.573 26.9432 160.952 26.3005 163.085 24.954C166.056 23.0742 168.133 20.1451 168.958 16.6652H162.012C161.476 17.7144 160.667 18.5975 159.658 19.2314L159.662 19.2226Z" fill="#0C0C0C"/>
<path d="M159.662 19.2226C158.173 20.1626 156.406 20.4598 154.691 20.0402C152.976 19.6248 151.537 18.5494 150.609 17.0061C148.711 13.8366 149.681 9.67033 152.767 7.71178C154.836 6.409 157.33 6.42211 159.335 7.5238L154.389 10.6015L157.777 16.3373L164.451 12.1885C165.63 11.4584 166.473 10.2736 166.8 8.9009C167.235 7.07351 166.694 5.14556 165.383 3.83403C161.178 -0.380347 154.563 -1.29842 149.341 2.00663C143.181 5.88876 141.258 14.2039 145.037 20.5342C147.523 24.6698 151.826 26.9432 156.232 26.9432C158.573 26.9432 160.952 26.3005 163.085 24.954C166.056 23.0742 168.133 20.1451 168.958 16.6652H162.012C161.476 17.7144 160.667 18.5975 159.658 19.2314L159.662 19.2226Z" fill="#0C0C0C"/>
<path d="M124.786 0C123.824 0 122.883 0.109294 121.981 0.314767C118.614 1.0842 115.107 0.931185 111.766 0.0349741V26.882H118.303V13.5656C118.303 9.98948 120.977 6.90301 124.454 6.72814C128.174 6.54016 131.26 9.59165 131.26 13.3732V26.9825H137.798V13.3601C137.798 5.99368 131.962 0 124.786 0Z" fill="#0C0C0C"/>
<path d="M124.786 0C123.824 0 122.883 0.109294 121.981 0.314767C118.614 1.0842 115.107 0.931185 111.766 0.0349741V26.882H118.303V13.5656C118.303 9.98948 120.977 6.90301 124.454 6.72814C128.174 6.54016 131.26 9.59165 131.26 13.3732V26.9825H137.798V13.3601C137.798 5.99368 131.962 0 124.786 0Z" fill="#0C0C0C"/>
<path d="M37.3324 3.47555L34.5785 5.58711C32.7737 6.96859 30.5391 7.73365 28.2832 7.73365V19.2707C30.5349 19.2707 32.7737 20.0314 34.5785 21.4173L37.3324 23.5288C40.2821 25.7847 43.8575 27.0044 47.535 27.0044H48.4884V20.2893H47.535C45.2663 20.2893 43.0572 19.5374 41.2398 18.1428L38.4858 16.0312C37.0599 14.9383 35.468 14.0902 33.7868 13.5044C35.468 12.9186 37.0599 12.0704 38.4858 10.9775L41.2398 8.86593C43.0572 7.47134 45.2663 6.7194 47.535 6.7194H48.4927V0H47.5393C43.883 0 40.2608 1.23284 37.3324 3.47555Z" fill="#0C0C0C"/>
<path d="M37.3324 3.47555L34.5785 5.58711C32.7737 6.96859 30.5391 7.73365 28.2832 7.73365V19.2707C30.5349 19.2707 32.7737 20.0314 34.5785 21.4173L37.3324 23.5288C40.2821 25.7847 43.8575 27.0044 47.535 27.0044H48.4884V20.2893H47.535C45.2663 20.2893 43.0572 19.5374 41.2398 18.1428L38.4858 16.0312C37.0599 14.9383 35.468 14.0902 33.7868 13.5044C35.468 12.9186 37.0599 12.0704 38.4858 10.9775L41.2398 8.86593C43.0572 7.47134 45.2663 6.7194 47.535 6.7194H48.4927V0H47.5393C43.883 0 40.2608 1.23284 37.3324 3.47555Z" fill="#0C0C0C"/>
</g>
<defs>
<clipPath id="clip0_373_597">
<rect width="197" height="27" fill="white"/>
</clipPath>
</defs>
</svg>
