<svg width="65" height="72" viewBox="0 0 65 72" fill="none" xmlns="http://www.w3.org/2000/svg">
<path d="M32.5 0C14.5686 0 0 14.946 0 33.264C0 61.8493 32.5 72 32.5 72C32.5 72 65 61.8376 65 33.264C65.0114 14.946 50.4314 0 32.5 0ZM32.5 49.8551C23.6996 49.8551 16.5293 42.633 16.3355 33.649C16.1417 24.8167 23.027 17.1979 31.6564 16.7428C40.9584 16.2528 48.6759 23.86 48.6759 33.2756C48.6759 42.6913 41.4258 49.8551 32.5114 49.8551H32.5Z" fill="#0C0C0C"/>
<path d="M32.5 0C14.5686 0 0 14.946 0 33.264C0 61.8493 32.5 72 32.5 72C32.5 72 65 61.8376 65 33.264C65.0114 14.946 50.4314 0 32.5 0ZM32.5 49.8551C23.6996 49.8551 16.5293 42.633 16.3355 33.649C16.1417 24.8167 23.027 17.1979 31.6564 16.7428C40.9584 16.2528 48.6759 23.86 48.6759 33.2756C48.6759 42.6913 41.4258 49.8551 32.5114 49.8551H32.5Z" fill="#0C0C0C"/>
</svg>
